<svg preserveAspectRatio="none" overflow="visible" style="display: block;" width="18.8105" height="22.5723" viewBox="0 0 18.8105 22.5723" fill="none" xmlns="http://www.w3.org/2000/svg">
<g id="Apple">
<path id="&#60;Path&#62;" d="M15.7105 12.0041C15.7219 11.1389 15.9573 10.2906 16.3948 9.53815C16.8322 8.78566 17.4575 8.15343 18.2125 7.70028C17.7329 7.03154 17.1002 6.4812 16.3646 6.09295C15.629 5.70471 14.8108 5.48927 13.975 5.46374C12.1922 5.28103 10.4637 6.5053 9.55521 6.5053C8.62911 6.5053 7.2303 5.48188 5.72401 5.51213C4.7497 5.54287 3.80016 5.81947 2.96791 6.31501C2.13565 6.81054 1.44907 7.50809 0.975045 8.33971C-1.07826 11.8105 0.453324 16.9114 2.42025 19.717C3.40436 21.0908 4.55448 22.6253 6.05942 22.5709C7.53208 22.5113 8.08209 21.6541 9.85972 21.6541C11.6208 21.6541 12.1369 22.5709 13.6723 22.5363C15.2526 22.5113 16.2482 21.1564 17.1978 19.7696C17.9049 18.7907 18.449 17.7089 18.8099 16.5641C17.8918 16.185 17.1084 15.5504 16.5572 14.7395C16.0061 13.9286 15.7116 12.9773 15.7105 12.0041Z" fill="#13161B"/>
<path id="&#60;Path&#62;_2" d="M12.811 3.6183C13.6726 2.60848 14.0971 1.31053 13.9943 8.99542e-05C12.678 0.135069 11.4621 0.749285 10.5888 1.72036C10.1618 2.19475 9.83484 2.74665 9.62648 3.3445C9.41812 3.94235 9.3325 4.57443 9.37451 5.20461C10.0329 5.21122 10.6843 5.0719 11.2795 4.79712C11.8748 4.52235 12.3984 4.11929 12.811 3.6183Z" fill="#13161B"/>
</g>
</svg>
