<svg preserveAspectRatio="none" overflow="visible" style="display: block;" width="72" height="72" viewBox="0 0 72 72" fill="none" xmlns="http://www.w3.org/2000/svg">
<g id="logo+not">
<g id="Rectangle 4203">
<path d="M0 13.0394C0 5.83793 5.83792 0 13.0394 0H58.9606C66.1621 0 72 5.83792 72 13.0394V58.9606C72 66.1621 66.1621 72 58.9606 72H13.0394C5.83793 72 0 66.1621 0 58.9606V13.0394Z" fill="url(#paint0_linear_0_446)"/>
<path d="M13.0391 0.407227H58.9609C65.9371 0.407395 71.5926 6.06291 71.5928 13.0391V58.9609C71.5926 65.9371 65.9371 71.5926 58.9609 71.5928H13.0391C6.06291 71.5926 0.407394 65.9371 0.407227 58.9609V13.0391C0.407394 6.06291 6.06291 0.407393 13.0391 0.407227Z" stroke="url(#paint1_radial_0_446)" stroke-opacity="0.5" stroke-width="0.814961"/>
<path d="M13.0391 0.407227H58.9609C65.9371 0.407395 71.5926 6.06291 71.5928 13.0391V58.9609C71.5926 65.9371 65.9371 71.5926 58.9609 71.5928H13.0391C6.06291 71.5926 0.407394 65.9371 0.407227 58.9609V13.0391C0.407394 6.06291 6.06291 0.407393 13.0391 0.407227Z" stroke="url(#paint2_radial_0_446)" stroke-opacity="0.5" stroke-width="0.814961"/>
</g>
<g id="logo">
<path id="Vector" d="M36.6122 53.2844C36.0284 52.8281 35.5987 52.1799 35.4359 51.4124L30.5208 28.0742L26.0683 32.7671H26.1532C27.9931 32.7671 29.4848 34.2138 29.4848 36.0011C29.4848 37.7884 27.9914 39.2334 26.1532 39.2334H18.4662C17.7455 39.2334 17.0213 39.0087 16.4184 38.5507C16.2469 38.4193 16.0875 38.2724 15.9454 38.1116C15.7826 37.9301 15.6457 37.7365 15.5331 37.5308C15.2802 37.0762 15.1364 36.5542 15.1364 36.0011C15.1364 35.2181 15.4274 34.4299 16.0165 33.8094L29.9872 19.0912C30.4498 18.5847 31.0787 18.2131 31.815 18.0662C33.6167 17.7084 35.3769 18.8371 35.746 20.5881L40.661 43.928L45.117 39.2334H45.0286C43.1887 39.2334 41.697 37.7867 41.697 35.9994C41.697 34.2121 43.1887 32.7654 45.0286 32.7654H52.7139C54.5538 32.7654 56.0455 34.2121 56.0455 35.9994C56.0455 36.3572 55.9848 36.7012 55.8739 37.0244C55.7301 37.4444 55.4928 37.8437 55.1636 38.1929L41.2016 52.9024C41.0231 53.0994 40.8204 53.2758 40.5952 53.4261C40.0287 53.8081 39.3651 54 38.6998 54C38.6756 54 38.6496 54 38.6236 53.9983C38.5075 53.9965 38.3915 53.9879 38.2789 53.9741C37.6846 53.9015 37.106 53.6716 36.6122 53.2844Z" fill="#3EF2C9"/>
</g>
</g>
<defs>
<linearGradient id="paint0_linear_0_446" x1="9.75" y1="-1.18464e-06" x2="60.75" y2="72" gradientUnits="userSpaceOnUse">
<stop/>
<stop offset="1" stop-color="#2C2C2C"/>
</linearGradient>
<radialGradient id="paint1_radial_0_446" cx="0" cy="0" r="1" gradientUnits="userSpaceOnUse" gradientTransform="translate(6 3) rotate(50.3145) scale(45.8053)">
<stop stop-color="white"/>
<stop offset="1" stop-opacity="0"/>
</radialGradient>
<radialGradient id="paint2_radial_0_446" cx="0" cy="0" r="1" gradientUnits="userSpaceOnUse" gradientTransform="translate(64.5 69.75) rotate(-131.634) scale(45.156)">
<stop stop-color="white"/>
<stop offset="1" stop-opacity="0"/>
</radialGradient>
</defs>
</svg>
