<svg preserveAspectRatio="none" overflow="visible" style="display: block;" width="16" height="16" viewBox="0 0 16 16" fill="none" xmlns="http://www.w3.org/2000/svg">
<g id="share">
<path id="Vector" d="M10.6667 4C10.6667 5.10457 11.5621 6 12.6667 6C13.7712 6 14.6667 5.10457 14.6667 4C14.6667 2.89543 13.7712 2 12.6667 2C11.5621 2 10.6667 2.89543 10.6667 4ZM10.6667 4L5.33333 8M5.33333 8C5.33333 9.10457 4.4379 10 3.33333 10C2.22876 10 1.33333 9.10457 1.33333 8C1.33333 6.89543 2.22876 6 3.33333 6C4.4379 6 5.33333 6.89543 5.33333 8ZM5.33333 8L10.6667 12M10.6667 12C10.6667 13.1046 11.5621 14 12.6667 14C13.7712 14 14.6667 13.1046 14.6667 12C14.6667 10.8954 13.7712 10 12.6667 10C11.5621 10 10.6667 10.8954 10.6667 12Z" stroke="#FFFFFF" stroke-width="1.5" stroke-linecap="round" stroke-linejoin="round"/>
</g>
</svg>
